<?xml version="1.0" encoding="UTF-8" standalone="no"?><!DOCTYPE svg PUBLIC "-//W3C//DTD SVG 1.1//EN" "http://www.w3.org/Graphics/SVG/1.1/DTD/svg11.dtd"><svg width="100%" height="100%" viewBox="0 0 19 19" version="1.1" xmlns="http://www.w3.org/2000/svg" xmlns:xlink="http://www.w3.org/1999/xlink" xml:space="preserve" xmlns:serif="http://www.serif.com/" style="fill-rule:evenodd;clip-rule:evenodd;stroke-linejoin:round;stroke-miterlimit:2;"><rect id="HAL-Icon" serif:id="HAL Icon" x="-0" y="0" width="18.72" height="18.72" style="fill:none;"/><circle id="Rim" cx="9.36" cy="9.36" r="8.88" style="fill:#8a8a8a;"/><circle id="Eye-Glow" serif:id="Eye Glow" cx="9.36" cy="9.36" r="8.16" style="fill:url(#_Radial1);"/><path id="Glow-Ring" serif:id="Glow Ring" d="M9.36,1.2c4.504,0 8.16,3.656 8.16,8.16c0,4.504 -3.656,8.16 -8.16,8.16c-4.504,0 -8.16,-3.656 -8.16,-8.16c0,-4.504 3.656,-8.16 8.16,-8.16Zm0,1.68c3.576,0 6.48,2.904 6.48,6.48c0,3.576 -2.904,6.48 -6.48,6.48c-3.576,0 -6.48,-2.904 -6.48,-6.48c0,-3.576 2.904,-6.48 6.48,-6.48Z" style="fill:url(#_Linear2);"/><circle id="Eye" cx="9.36" cy="9.36" r="2.64" style="fill:#bb0606;"/><defs><radialGradient id="_Radial1" cx="0" cy="0" r="1" gradientUnits="userSpaceOnUse" gradientTransform="matrix(2.81424e-16,4.596,-4.596,2.81424e-16,9.36,9.564)"><stop offset="0" style="stop-color:#e60909;stop-opacity:1"/><stop offset="1" style="stop-color:#0d0d0d;stop-opacity:1"/></radialGradient><linearGradient id="_Linear2" x1="0" y1="0" x2="1" y2="0" gradientUnits="userSpaceOnUse" gradientTransform="matrix(9.72,9.6,-9.6,9.72,2.76,3)"><stop offset="0" style="stop-color:#737373;stop-opacity:0.17"/><stop offset="1" style="stop-color:#000;stop-opacity:1"/></linearGradient></defs></svg>