<?xml version="1.0" encoding="UTF-8" standalone="no"?><!DOCTYPE svg PUBLIC "-//W3C//DTD SVG 1.1//EN" "http://www.w3.org/Graphics/SVG/1.1/DTD/svg11.dtd"><svg width="100%" height="100%" viewBox="0 0 136 144" version="1.1" xmlns="http://www.w3.org/2000/svg" xmlns:xlink="http://www.w3.org/1999/xlink" xml:space="preserve" xmlns:serif="http://www.serif.com/" style="fill-rule:evenodd;clip-rule:evenodd;stroke-linejoin:round;stroke-miterlimit:2;"><rect id="HAL-Text-Bottom-White" serif:id="HAL Text Bottom White" x="0.57" y="0" width="135" height="144" style="fill:none;"/><circle id="Rim" cx="68.443" cy="41.682" r="37" style="fill:#8a8a8a;"/><circle id="Eye-Glow" serif:id="Eye Glow" cx="68.443" cy="41.682" r="34" style="fill:url(#_Radial1);"/><path id="Glow-Ring" serif:id="Glow Ring" d="M68.443,7.682c18.765,-0 34,15.235 34,34c-0,18.765 -15.235,34 -34,34c-18.765,-0 -34,-15.235 -34,-34c-0,-18.765 15.235,-34 34,-34Zm-0,7c14.902,-0 27,12.098 27,27c-0,14.901 -12.098,27 -27,27c-14.902,-0 -27,-12.099 -27,-27c-0,-14.902 12.098,-27 27,-27Z" style="fill:url(#_Linear2);"/><circle id="Eye" cx="68.443" cy="41.682" r="11" style="fill:#bb0606;"/><text x="-0.374px" y="139.999px" style="font-family:'Exo2-Regular_ExtraBold', 'Exo 2';font-size:59.147px;fill:#f2f2f2;">H<tspan x="49.281px 95.71px " y="139.999px 139.999px ">AL</tspan></text><defs><radialGradient id="_Radial1" cx="0" cy="0" r="1" gradientUnits="userSpaceOnUse" gradientTransform="matrix(1.1726e-15,19.15,-19.15,1.1726e-15,68.4428,42.5317)"><stop offset="0" style="stop-color:#e60909;stop-opacity:1"/><stop offset="1" style="stop-color:#0d0d0d;stop-opacity:1"/></radialGradient><linearGradient id="_Linear2" x1="0" y1="0" x2="1" y2="0" gradientUnits="userSpaceOnUse" gradientTransform="matrix(40.5,40,-40,40.5,40.9428,15.1817)"><stop offset="0" style="stop-color:#737373;stop-opacity:0.17"/><stop offset="1" style="stop-color:#000;stop-opacity:1"/></linearGradient></defs></svg>